<mxfile host="65bd71144e">
    <diagram id="gRa_PDNbVfpLi7tuy85_" name="层级图">
        <mxGraphModel dx="2374" dy="1307" grid="1" gridSize="10" guides="1" tooltips="1" connect="1" arrows="1" fold="1" page="1" pageScale="1" pageWidth="827" pageHeight="1169" math="0" shadow="0">
            <root>
                <mxCell id="pkFZP-52uttu1z0InWbO-0"/>
                <mxCell id="pkFZP-52uttu1z0InWbO-1" parent="pkFZP-52uttu1z0InWbO-0"/>
                <mxCell id="nOuGmtbJEbyzUFSfSdY7-2" value="1" style="rounded=0;whiteSpace=wrap;html=1;container=0;" vertex="1" parent="pkFZP-52uttu1z0InWbO-1">
                    <mxGeometry x="-270" y="150" width="120" height="190" as="geometry"/>
                </mxCell>
                <mxCell id="nOuGmtbJEbyzUFSfSdY7-3" value="" style="rounded=0;whiteSpace=wrap;html=1;container=0;" vertex="1" parent="pkFZP-52uttu1z0InWbO-1">
                    <mxGeometry x="-160" y="150" width="820" height="190" as="geometry"/>
                </mxCell>
                <mxCell id="nOuGmtbJEbyzUFSfSdY7-4" value="full_adder" style="html=1;container=0;" vertex="1" parent="pkFZP-52uttu1z0InWbO-1">
                    <mxGeometry x="-40" y="210" width="230" height="50" as="geometry"/>
                </mxCell>
                <mxCell id="nOuGmtbJEbyzUFSfSdY7-6" value="层级" style="rounded=0;whiteSpace=wrap;html=1;container=0;" vertex="1" parent="pkFZP-52uttu1z0InWbO-1">
                    <mxGeometry x="-270" y="90" width="120" height="60" as="geometry"/>
                </mxCell>
                <mxCell id="nOuGmtbJEbyzUFSfSdY7-7" value="模块名" style="rounded=0;whiteSpace=wrap;html=1;container=0;" vertex="1" parent="pkFZP-52uttu1z0InWbO-1">
                    <mxGeometry x="-160" y="90" width="820" height="60" as="geometry"/>
                </mxCell>
                <mxCell id="nOuGmtbJEbyzUFSfSdY7-10" value="2" style="rounded=0;whiteSpace=wrap;html=1;container=0;" vertex="1" parent="pkFZP-52uttu1z0InWbO-1">
                    <mxGeometry x="-270" y="340" width="120" height="190" as="geometry"/>
                </mxCell>
                <mxCell id="nOuGmtbJEbyzUFSfSdY7-11" value="" style="rounded=0;whiteSpace=wrap;html=1;container=0;" vertex="1" parent="pkFZP-52uttu1z0InWbO-1">
                    <mxGeometry x="-160" y="340" width="820" height="190" as="geometry"/>
                </mxCell>
                <mxCell id="nOuGmtbJEbyzUFSfSdY7-13" value="full_adder_sum" style="html=1;container=0;" vertex="1" parent="pkFZP-52uttu1z0InWbO-1">
                    <mxGeometry x="-40" y="420" width="230" height="50" as="geometry"/>
                </mxCell>
                <mxCell id="nOuGmtbJEbyzUFSfSdY7-14" value="full_adder_co" style="html=1;container=0;" vertex="1" parent="pkFZP-52uttu1z0InWbO-1">
                    <mxGeometry x="240" y="420" width="230" height="50" as="geometry"/>
                </mxCell>
                <mxCell id="nOuGmtbJEbyzUFSfSdY7-21" value="3" style="rounded=0;whiteSpace=wrap;html=1;container=0;" vertex="1" parent="pkFZP-52uttu1z0InWbO-1">
                    <mxGeometry x="-270" y="530" width="120" height="190" as="geometry"/>
                </mxCell>
                <mxCell id="nOuGmtbJEbyzUFSfSdY7-22" value="" style="rounded=0;whiteSpace=wrap;html=1;container=0;" vertex="1" parent="pkFZP-52uttu1z0InWbO-1">
                    <mxGeometry x="-160" y="530" width="820" height="190" as="geometry"/>
                </mxCell>
                <mxCell id="nOuGmtbJEbyzUFSfSdY7-24" value="XNOR2_X1_LVT" style="html=1;container=0;" vertex="1" parent="pkFZP-52uttu1z0InWbO-1">
                    <mxGeometry x="-50" y="610" width="230" height="50" as="geometry"/>
                </mxCell>
                <mxCell id="nOuGmtbJEbyzUFSfSdY7-25" value="OAI222_X1_LVT" style="html=1;container=0;" vertex="1" parent="pkFZP-52uttu1z0InWbO-1">
                    <mxGeometry x="250" y="610" width="230" height="50" as="geometry"/>
                </mxCell>
            </root>
        </mxGraphModel>
    </diagram>
    <diagram id="C6uHbtf7SHVLSFOVWvyl" name="调用关系图">
        <mxGraphModel dx="928" dy="784" grid="1" gridSize="10" guides="1" tooltips="1" connect="1" arrows="1" fold="1" page="1" pageScale="1" pageWidth="827" pageHeight="1169" math="0" shadow="0">
            <root>
                <mxCell id="0"/>
                <mxCell id="1" parent="0"/>
                <mxCell id="2" value="full_adder" style="html=1;align=center;verticalAlign=top;rounded=0;absoluteArcSize=1;arcSize=10;dashed=0;" vertex="1" parent="1">
                    <mxGeometry x="200" y="250" width="140" height="40" as="geometry"/>
                </mxCell>
                <mxCell id="4" value="full_adder_co" style="html=1;align=center;verticalAlign=top;rounded=0;absoluteArcSize=1;arcSize=10;dashed=0;" vertex="1" parent="1">
                    <mxGeometry x="80" y="380" width="140" height="40" as="geometry"/>
                </mxCell>
                <mxCell id="6" value="full_adder_sum" style="html=1;align=center;verticalAlign=top;rounded=0;absoluteArcSize=1;arcSize=10;dashed=0;" vertex="1" parent="1">
                    <mxGeometry x="320" y="380" width="140" height="40" as="geometry"/>
                </mxCell>
                <mxCell id="7" value="" style="endArrow=diamondThin;endFill=0;endSize=24;html=1;exitX=0.25;exitY=1;exitDx=0;exitDy=0;entryX=0.5;entryY=0;entryDx=0;entryDy=0;edgeStyle=orthogonalEdgeStyle;rounded=0;" edge="1" parent="1" source="2" target="4">
                    <mxGeometry width="160" relative="1" as="geometry">
                        <mxPoint x="310" y="620" as="sourcePoint"/>
                        <mxPoint x="470" y="620" as="targetPoint"/>
                    </mxGeometry>
                </mxCell>
                <mxCell id="9" value="" style="endArrow=diamondThin;endFill=0;endSize=24;html=1;exitX=0.75;exitY=1;exitDx=0;exitDy=0;edgeStyle=orthogonalEdgeStyle;rounded=0;" edge="1" parent="1" source="2" target="6">
                    <mxGeometry width="160" relative="1" as="geometry">
                        <mxPoint x="335" y="390" as="sourcePoint"/>
                        <mxPoint x="250" y="480" as="targetPoint"/>
                    </mxGeometry>
                </mxCell>
            </root>
        </mxGraphModel>
    </diagram>
</mxfile>